<svg width="154" height="38" viewBox="0 0 154 38" fill="none" xmlns="http://www.w3.org/2000/svg">
<g filter="url(#filter0_i_45_4127)">
<rect width="38" height="38" rx="19" fill="#0A77FF"/>
</g>
<g clip-path="url(#clip0_45_4127)">
<path d="M30.7328 17.8319L26.2192 17.1365L23.4685 12.643C23.3242 12.4078 23.1215 12.2138 22.8802 12.0799C22.6389 11.9459 22.3671 11.8766 22.0911 11.8784L10.5632 11.9703C10.2306 11.9731 9.90716 12.0795 9.63776 12.2746C9.36836 12.4697 9.16642 12.7438 9.06 13.059L7.75 16.9435V25.8748H10.5003C10.7141 26.5698 11.1451 27.1779 11.73 27.6099C12.3149 28.0419 13.0229 28.275 13.75 28.275C14.4771 28.275 15.1851 28.0419 15.77 27.6099C16.3549 27.1779 16.7859 26.5698 16.9997 25.8748H22.1003C22.3141 26.5698 22.7451 27.1779 23.33 27.6099C23.9149 28.0419 24.6229 28.275 25.35 28.275C26.0771 28.275 26.7851 28.0419 27.37 27.6099C27.9549 27.1779 28.3859 26.5698 28.5997 25.8748H31.75V19.0179C31.7513 18.7309 31.6492 18.4531 31.4624 18.2353C31.2756 18.0175 31.0166 17.8743 30.7328 17.8319ZM18.15 13.5098L22.1039 13.4783L24.3089 17.0806L18.15 17.0785V13.5098ZM10.576 13.5702L16.55 13.5226V17.0779L9.39405 17.0754L10.576 13.5702ZM13.75 26.6748C13.394 26.6748 13.046 26.5692 12.75 26.3714C12.454 26.1736 12.2233 25.8925 12.087 25.5636C11.9508 25.2347 11.9151 24.8728 11.9846 24.5236C12.054 24.1744 12.2255 23.8537 12.4772 23.602C12.7289 23.3502 13.0497 23.1788 13.3988 23.1094C13.748 23.0399 14.1099 23.0755 14.4388 23.2118C14.7677 23.348 15.0489 23.5787 15.2466 23.8747C15.4444 24.1708 15.55 24.5188 15.55 24.8748C15.5495 25.352 15.3597 25.8095 15.0222 26.147C14.6848 26.4844 14.2272 26.6742 13.75 26.6748ZM25.35 26.6748C24.994 26.6748 24.646 26.5692 24.35 26.3714C24.054 26.1736 23.8232 25.8925 23.687 25.5636C23.5508 25.2347 23.5151 24.8728 23.5846 24.5236C23.654 24.1744 23.8255 23.8537 24.0772 23.602C24.3289 23.3502 24.6497 23.1788 24.9988 23.1094C25.348 23.0399 25.7099 23.0755 26.0388 23.2118C26.3677 23.348 26.6488 23.5787 26.8466 23.8747C27.0444 24.1708 27.15 24.5188 27.15 24.8748C27.1495 25.352 26.9596 25.8095 26.6222 26.147C26.2847 26.4844 25.8272 26.6742 25.35 26.6748ZM30.15 24.2748H28.6959C28.5553 23.4896 28.1431 22.779 27.5315 22.2671C26.9198 21.7552 26.1476 21.4747 25.35 21.4747C24.5524 21.4747 23.7802 21.7552 23.1685 22.2671C22.5568 22.779 22.1447 23.4896 22.0041 24.2748H17.0959C16.9553 23.4896 16.5431 22.779 15.9315 22.2671C15.3198 21.7552 14.5476 21.4747 13.75 21.4747C12.9524 21.4747 12.1802 21.7552 11.5685 22.2671C10.9568 22.779 10.5447 23.4896 10.4041 24.2748H9.35V18.6761L25.8763 18.7025L30.15 19.361V24.2748Z" fill="white"/>
</g>
<path d="M51.1477 12.3636H53.7273L57.1818 20.7955H57.3182L60.7727 12.3636H63.3523V24H61.3295V16.0057H61.2216L58.0057 23.9659H56.4943L53.2784 15.9886H53.1705V24H51.1477V12.3636ZM66.8352 27.2727C66.5549 27.2727 66.2955 27.25 66.0568 27.2045C65.822 27.1629 65.6345 27.1136 65.4943 27.0568L65.9716 25.4545C66.2708 25.5417 66.5379 25.5833 66.7727 25.5795C67.0076 25.5758 67.214 25.5019 67.392 25.358C67.5739 25.2178 67.7273 24.983 67.8523 24.6534L68.0284 24.1818L64.8636 15.2727H67.0455L69.0568 21.8636H69.1477L71.1648 15.2727H73.3523L69.858 25.0568C69.6951 25.5189 69.4792 25.9148 69.2102 26.2443C68.9413 26.5777 68.6117 26.8314 68.2216 27.0057C67.8352 27.1837 67.3731 27.2727 66.8352 27.2727ZM78.3239 14.1307V12.3636H87.608V14.1307H84.0114V24H81.9205V14.1307H78.3239ZM88.4006 24V15.2727H90.3949V16.7273H90.4858C90.6449 16.2235 90.9176 15.8352 91.304 15.5625C91.6941 15.286 92.1392 15.1477 92.6392 15.1477C92.7528 15.1477 92.8797 15.1534 93.0199 15.1648C93.1638 15.1723 93.2831 15.1856 93.3778 15.2045V17.0966C93.2907 17.0663 93.1525 17.0398 92.9631 17.017C92.7775 16.9905 92.5975 16.9773 92.4233 16.9773C92.0483 16.9773 91.7112 17.0587 91.4119 17.2216C91.1165 17.3807 90.8835 17.6023 90.7131 17.8864C90.5426 18.1705 90.4574 18.4981 90.4574 18.8693V24H88.4006ZM97.0994 24.1761C96.5464 24.1761 96.0483 24.0777 95.6051 23.8807C95.1657 23.6799 94.8172 23.3845 94.5597 22.9943C94.3059 22.6042 94.179 22.1231 94.179 21.5511C94.179 21.0587 94.2699 20.6515 94.4517 20.3295C94.6335 20.0076 94.8816 19.75 95.196 19.5568C95.5104 19.3636 95.8646 19.2178 96.2585 19.1193C96.6563 19.017 97.0672 18.9432 97.4915 18.8977C98.0028 18.8447 98.4176 18.7973 98.7358 18.7557C99.054 18.7102 99.285 18.642 99.429 18.5511C99.5767 18.4564 99.6506 18.3106 99.6506 18.1136V18.0795C99.6506 17.6515 99.5237 17.3201 99.2699 17.0852C99.0161 16.8504 98.6506 16.733 98.1733 16.733C97.6695 16.733 97.2699 16.8428 96.9744 17.0625C96.6828 17.2822 96.4858 17.5417 96.3835 17.8409L94.4631 17.5682C94.6146 17.0379 94.8646 16.5947 95.2131 16.2386C95.5616 15.8788 95.9877 15.6098 96.4915 15.4318C96.9953 15.25 97.5521 15.1591 98.1619 15.1591C98.5824 15.1591 99.0009 15.2083 99.4176 15.3068C99.8343 15.4053 100.215 15.5682 100.56 15.7955C100.904 16.0189 101.181 16.3239 101.389 16.7102C101.601 17.0966 101.707 17.5795 101.707 18.1591V24H99.7301V22.8011H99.6619C99.5369 23.0436 99.3608 23.2708 99.1335 23.483C98.91 23.6913 98.6278 23.8598 98.2869 23.9886C97.9498 24.1136 97.554 24.1761 97.0994 24.1761ZM97.6335 22.6648C98.0464 22.6648 98.4044 22.5833 98.7074 22.4205C99.0104 22.2538 99.2434 22.0341 99.4062 21.7614C99.5729 21.4886 99.6562 21.1913 99.6562 20.8693V19.8409C99.5919 19.8939 99.482 19.9432 99.3267 19.9886C99.1752 20.0341 99.0047 20.0739 98.8153 20.108C98.6259 20.142 98.4384 20.1723 98.2528 20.1989C98.0672 20.2254 97.9063 20.2481 97.7699 20.267C97.4631 20.3087 97.1884 20.3769 96.946 20.4716C96.7036 20.5663 96.5123 20.6989 96.3722 20.8693C96.232 21.036 96.1619 21.2519 96.1619 21.517C96.1619 21.8958 96.3002 22.1818 96.5767 22.375C96.8532 22.5682 97.2055 22.6648 97.6335 22.6648ZM105.832 18.8864V24H103.776V15.2727H105.741V16.7557H105.844C106.045 16.267 106.365 15.8788 106.804 15.5909C107.247 15.303 107.795 15.1591 108.446 15.1591C109.048 15.1591 109.573 15.2879 110.02 15.5455C110.471 15.803 110.819 16.1761 111.065 16.6648C111.315 17.1534 111.438 17.7462 111.435 18.4432V24H109.378V18.7614C109.378 18.178 109.226 17.7216 108.923 17.392C108.624 17.0625 108.209 16.8977 107.679 16.8977C107.319 16.8977 106.999 16.9773 106.719 17.1364C106.442 17.2917 106.224 17.517 106.065 17.8125C105.91 18.108 105.832 18.4659 105.832 18.8864ZM120.423 17.5795L118.548 17.7841C118.495 17.5947 118.402 17.4167 118.27 17.25C118.141 17.0833 117.967 16.9489 117.747 16.8466C117.527 16.7443 117.259 16.6932 116.94 16.6932C116.512 16.6932 116.152 16.786 115.861 16.9716C115.573 17.1572 115.431 17.3977 115.435 17.6932C115.431 17.947 115.524 18.1534 115.713 18.3125C115.906 18.4716 116.224 18.6023 116.668 18.7045L118.156 19.0227C118.982 19.2008 119.596 19.483 119.997 19.8693C120.402 20.2557 120.607 20.7614 120.611 21.3864C120.607 21.9356 120.446 22.4205 120.128 22.8409C119.813 23.2576 119.376 23.5833 118.815 23.8182C118.255 24.053 117.611 24.1705 116.884 24.1705C115.815 24.1705 114.955 23.947 114.304 23.5C113.652 23.0492 113.264 22.4223 113.139 21.6193L115.145 21.4261C115.236 21.8201 115.429 22.1174 115.724 22.3182C116.02 22.5189 116.404 22.6193 116.878 22.6193C117.366 22.6193 117.759 22.5189 118.054 22.3182C118.353 22.1174 118.503 21.8693 118.503 21.5739C118.503 21.3239 118.406 21.1174 118.213 20.9545C118.024 20.7917 117.728 20.6667 117.327 20.5795L115.838 20.267C115.001 20.0928 114.382 19.7992 113.98 19.3864C113.579 18.9697 113.38 18.4432 113.384 17.8068C113.38 17.2689 113.526 16.803 113.821 16.4091C114.12 16.0114 114.535 15.7045 115.065 15.4886C115.599 15.2689 116.215 15.1591 116.912 15.1591C117.935 15.1591 118.74 15.3769 119.327 15.8125C119.918 16.2481 120.283 16.8371 120.423 17.5795ZM122.307 27.2727V15.2727H124.33V16.7159H124.449C124.555 16.5038 124.705 16.2784 124.898 16.0398C125.091 15.7973 125.352 15.5909 125.682 15.4205C126.011 15.2462 126.432 15.1591 126.943 15.1591C127.617 15.1591 128.225 15.3314 128.767 15.6761C129.313 16.017 129.744 16.5227 130.062 17.1932C130.384 17.8598 130.545 18.678 130.545 19.6477C130.545 20.6061 130.388 21.4205 130.074 22.0909C129.759 22.7614 129.331 23.2727 128.79 23.625C128.248 23.9773 127.634 24.1534 126.949 24.1534C126.449 24.1534 126.034 24.0701 125.705 23.9034C125.375 23.7367 125.11 23.536 124.909 23.3011C124.712 23.0625 124.559 22.8371 124.449 22.625H124.364V27.2727H122.307ZM124.324 19.6364C124.324 20.2008 124.403 20.6951 124.562 21.1193C124.725 21.5436 124.958 21.875 125.261 22.1136C125.568 22.3485 125.939 22.4659 126.375 22.4659C126.83 22.4659 127.21 22.3447 127.517 22.1023C127.824 21.8561 128.055 21.5208 128.21 21.0966C128.369 20.6686 128.449 20.1818 128.449 19.6364C128.449 19.0947 128.371 18.6136 128.216 18.1932C128.061 17.7727 127.83 17.4432 127.523 17.2045C127.216 16.9659 126.833 16.8466 126.375 16.8466C125.936 16.8466 125.562 16.9621 125.256 17.1932C124.949 17.4242 124.716 17.7481 124.557 18.1648C124.402 18.5814 124.324 19.072 124.324 19.6364ZM136.114 24.1705C135.261 24.1705 134.523 23.983 133.898 23.608C133.273 23.233 132.788 22.7083 132.443 22.0341C132.102 21.3598 131.932 20.572 131.932 19.6705C131.932 18.7689 132.102 17.9792 132.443 17.3011C132.788 16.6231 133.273 16.0966 133.898 15.7216C134.523 15.3466 135.261 15.1591 136.114 15.1591C136.966 15.1591 137.705 15.3466 138.33 15.7216C138.955 16.0966 139.438 16.6231 139.778 17.3011C140.123 17.9792 140.295 18.7689 140.295 19.6705C140.295 20.572 140.123 21.3598 139.778 22.0341C139.438 22.7083 138.955 23.233 138.33 23.608C137.705 23.983 136.966 24.1705 136.114 24.1705ZM136.125 22.5227C136.587 22.5227 136.973 22.3958 137.284 22.142C137.595 21.8845 137.826 21.5398 137.977 21.108C138.133 20.6761 138.21 20.1951 138.21 19.6648C138.21 19.1307 138.133 18.6477 137.977 18.2159C137.826 17.7803 137.595 17.4337 137.284 17.1761C136.973 16.9186 136.587 16.7898 136.125 16.7898C135.652 16.7898 135.258 16.9186 134.943 17.1761C134.633 17.4337 134.4 17.7803 134.244 18.2159C134.093 18.6477 134.017 19.1307 134.017 19.6648C134.017 20.1951 134.093 20.6761 134.244 21.108C134.4 21.5398 134.633 21.8845 134.943 22.142C135.258 22.3958 135.652 22.5227 136.125 22.5227ZM142.041 24V15.2727H144.036V16.7273H144.126C144.286 16.2235 144.558 15.8352 144.945 15.5625C145.335 15.286 145.78 15.1477 146.28 15.1477C146.393 15.1477 146.52 15.1534 146.661 15.1648C146.804 15.1723 146.924 15.1856 147.018 15.2045V17.0966C146.931 17.0663 146.793 17.0398 146.604 17.017C146.418 16.9905 146.238 16.9773 146.064 16.9773C145.689 16.9773 145.352 17.0587 145.053 17.2216C144.757 17.3807 144.524 17.6023 144.354 17.8864C144.183 18.1705 144.098 18.4981 144.098 18.8693V24H142.041ZM153.212 15.2727V16.8636H148.195V15.2727H153.212ZM149.433 13.1818H151.49V21.375C151.49 21.6515 151.532 21.8636 151.615 22.0114C151.702 22.1553 151.816 22.2538 151.956 22.3068C152.096 22.3598 152.251 22.3864 152.422 22.3864C152.551 22.3864 152.668 22.3769 152.774 22.358C152.884 22.339 152.967 22.322 153.024 22.3068L153.371 23.9148C153.261 23.9527 153.104 23.9943 152.899 24.0398C152.698 24.0852 152.452 24.1117 152.161 24.1193C151.645 24.1345 151.181 24.0568 150.768 23.8864C150.356 23.7121 150.028 23.4432 149.786 23.0795C149.547 22.7159 149.429 22.2614 149.433 21.7159V13.1818Z" fill="#2D2D3A"/>
<defs>
<filter id="filter0_i_45_4127" x="0" y="0" width="38" height="38" filterUnits="userSpaceOnUse" color-interpolation-filters="sRGB">
<feFlood flood-opacity="0" result="BackgroundImageFix"/>
<feBlend mode="normal" in="SourceGraphic" in2="BackgroundImageFix" result="shape"/>
<feColorMatrix in="SourceAlpha" type="matrix" values="0 0 0 0 0 0 0 0 0 0 0 0 0 0 0 0 0 0 127 0" result="hardAlpha"/>
<feOffset/>
<feGaussianBlur stdDeviation="5"/>
<feComposite in2="hardAlpha" operator="arithmetic" k2="-1" k3="1"/>
<feColorMatrix type="matrix" values="0 0 0 0 0 0 0 0 0 0 0 0 0 0 0 0 0 0 0.25 0"/>
<feBlend mode="normal" in2="shape" result="effect1_innerShadow_45_4127"/>
</filter>
<clipPath id="clip0_45_4127">
<rect width="24" height="24" fill="white" transform="translate(7 7)"/>
</clipPath>
</defs>
</svg>
