<svg width="38" height="38" viewBox="0 0 38 38" fill="none" xmlns="http://www.w3.org/2000/svg">
<g filter="url(#filter0_i_45_4127)">
<rect width="38" height="38" rx="19" fill="#0A77FF"/>
</g>
<g clip-path="url(#clip0_45_4127)">
<path d="M30.7328 17.8319L26.2192 17.1365L23.4685 12.643C23.3242 12.4078 23.1215 12.2138 22.8802 12.0799C22.6389 11.9459 22.3671 11.8766 22.0911 11.8784L10.5632 11.9703C10.2306 11.9731 9.90716 12.0795 9.63776 12.2746C9.36836 12.4697 9.16642 12.7438 9.06 13.059L7.75 16.9435V25.8748H10.5003C10.7141 26.5698 11.1451 27.1779 11.73 27.6099C12.3149 28.0419 13.0229 28.275 13.75 28.275C14.4771 28.275 15.1851 28.0419 15.77 27.6099C16.3549 27.1779 16.7859 26.5698 16.9997 25.8748H22.1003C22.3141 26.5698 22.7451 27.1779 23.33 27.6099C23.9149 28.0419 24.6229 28.275 25.35 28.275C26.0771 28.275 26.7851 28.0419 27.37 27.6099C27.9549 27.1779 28.3859 26.5698 28.5997 25.8748H31.75V19.0179C31.7513 18.7309 31.6492 18.4531 31.4624 18.2353C31.2756 18.0175 31.0166 17.8743 30.7328 17.8319ZM18.15 13.5098L22.1039 13.4783L24.3089 17.0806L18.15 17.0785V13.5098ZM10.576 13.5702L16.55 13.5226V17.0779L9.39405 17.0754L10.576 13.5702ZM13.75 26.6748C13.394 26.6748 13.046 26.5692 12.75 26.3714C12.454 26.1736 12.2233 25.8925 12.087 25.5636C11.9508 25.2347 11.9151 24.8728 11.9846 24.5236C12.054 24.1744 12.2255 23.8537 12.4772 23.602C12.7289 23.3502 13.0497 23.1788 13.3988 23.1094C13.748 23.0399 14.1099 23.0755 14.4388 23.2118C14.7677 23.348 15.0489 23.5787 15.2466 23.8747C15.4444 24.1708 15.55 24.5188 15.55 24.8748C15.5495 25.352 15.3597 25.8095 15.0222 26.147C14.6848 26.4844 14.2272 26.6742 13.75 26.6748ZM25.35 26.6748C24.994 26.6748 24.646 26.5692 24.35 26.3714C24.054 26.1736 23.8232 25.8925 23.687 25.5636C23.5508 25.2347 23.5151 24.8728 23.5846 24.5236C23.654 24.1744 23.8255 23.8537 24.0772 23.602C24.3289 23.3502 24.6497 23.1788 24.9988 23.1094C25.348 23.0399 25.7099 23.0755 26.0388 23.2118C26.3677 23.348 26.6488 23.5787 26.8466 23.8747C27.0444 24.1708 27.15 24.5188 27.15 24.8748C27.1495 25.352 26.9596 25.8095 26.6222 26.147C26.2847 26.4844 25.8272 26.6742 25.35 26.6748ZM30.15 24.2748H28.6959C28.5553 23.4896 28.1431 22.779 27.5315 22.2671C26.9198 21.7552 26.1476 21.4747 25.35 21.4747C24.5524 21.4747 23.7802 21.7552 23.1685 22.2671C22.5568 22.779 22.1447 23.4896 22.0041 24.2748H17.0959C16.9553 23.4896 16.5431 22.779 15.9315 22.2671C15.3198 21.7552 14.5476 21.4747 13.75 21.4747C12.9524 21.4747 12.1802 21.7552 11.5685 22.2671C10.9568 22.779 10.5447 23.4896 10.4041 24.2748H9.35V18.6761L25.8763 18.7025L30.15 19.361V24.2748Z" fill="white"/>
</g>
<defs>
<filter id="filter0_i_45_4127" x="0" y="0" width="38" height="38" filterUnits="userSpaceOnUse" color-interpolation-filters="sRGB">
<feFlood flood-opacity="0" result="BackgroundImageFix"/>
<feBlend mode="normal" in="SourceGraphic" in2="BackgroundImageFix" result="shape"/>
<feColorMatrix in="SourceAlpha" type="matrix" values="0 0 0 0 0 0 0 0 0 0 0 0 0 0 0 0 0 0 127 0" result="hardAlpha"/>
<feOffset/>
<feGaussianBlur stdDeviation="5"/>
<feComposite in2="hardAlpha" operator="arithmetic" k2="-1" k3="1"/>
<feColorMatrix type="matrix" values="0 0 0 0 0 0 0 0 0 0 0 0 0 0 0 0 0 0 0.25 0"/>
<feBlend mode="normal" in2="shape" result="effect1_innerShadow_45_4127"/>
</filter>
<clipPath id="clip0_45_4127">
<rect width="24" height="24" fill="white" transform="translate(7 7)"/>
</clipPath>
</defs>
</svg>
