<svg width="103" height="16" viewBox="0 0 103 16" fill="none" xmlns="http://www.w3.org/2000/svg">
<path d="M0.147727 0.363636H2.72727L6.18182 8.79545H6.31818L9.77273 0.363636H12.3523V12H10.3295V4.00568H10.2216L7.00568 11.9659H5.49432L2.27841 3.98864H2.17045V12H0.147727V0.363636ZM15.8352 15.2727C15.5549 15.2727 15.2955 15.25 15.0568 15.2045C14.822 15.1629 14.6345 15.1136 14.4943 15.0568L14.9716 13.4545C15.2708 13.5417 15.5379 13.5833 15.7727 13.5795C16.0076 13.5758 16.214 13.5019 16.392 13.358C16.5739 13.2178 16.7273 12.983 16.8523 12.6534L17.0284 12.1818L13.8636 3.27273H16.0455L18.0568 9.86364H18.1477L20.1648 3.27273H22.3523L18.858 13.0568C18.6951 13.5189 18.4792 13.9148 18.2102 14.2443C17.9413 14.5777 17.6117 14.8314 17.2216 15.0057C16.8352 15.1837 16.3731 15.2727 15.8352 15.2727ZM27.3239 2.13068V0.363636H36.608V2.13068H33.0114V12H30.9205V2.13068H27.3239ZM37.4006 12V3.27273H39.3949V4.72727H39.4858C39.6449 4.22348 39.9176 3.83523 40.304 3.5625C40.6941 3.28598 41.1392 3.14773 41.6392 3.14773C41.7528 3.14773 41.8797 3.15341 42.0199 3.16477C42.1638 3.17235 42.2831 3.18561 42.3778 3.20455V5.09659C42.2907 5.06629 42.1525 5.03977 41.9631 5.01705C41.7775 4.99053 41.5975 4.97727 41.4233 4.97727C41.0483 4.97727 40.7112 5.05871 40.4119 5.22159C40.1165 5.38068 39.8835 5.60227 39.7131 5.88636C39.5426 6.17045 39.4574 6.49811 39.4574 6.86932V12H37.4006ZM46.0994 12.1761C45.5464 12.1761 45.0483 12.0777 44.6051 11.8807C44.1657 11.6799 43.8172 11.3845 43.5597 10.9943C43.3059 10.6042 43.179 10.1231 43.179 9.55114C43.179 9.05871 43.2699 8.65152 43.4517 8.32955C43.6335 8.00758 43.8816 7.75 44.196 7.55682C44.5104 7.36364 44.8646 7.2178 45.2585 7.11932C45.6563 7.01705 46.0672 6.94318 46.4915 6.89773C47.0028 6.8447 47.4176 6.79735 47.7358 6.75568C48.054 6.71023 48.285 6.64205 48.429 6.55114C48.5767 6.45644 48.6506 6.31061 48.6506 6.11364V6.07955C48.6506 5.65152 48.5237 5.32008 48.2699 5.08523C48.0161 4.85038 47.6506 4.73295 47.1733 4.73295C46.6695 4.73295 46.2699 4.8428 45.9744 5.0625C45.6828 5.2822 45.4858 5.54167 45.3835 5.84091L43.4631 5.56818C43.6146 5.03788 43.8646 4.5947 44.2131 4.23864C44.5616 3.87879 44.9877 3.60985 45.4915 3.43182C45.9953 3.25 46.5521 3.15909 47.1619 3.15909C47.5824 3.15909 48.0009 3.20833 48.4176 3.30682C48.8343 3.4053 49.215 3.56818 49.5597 3.79545C49.9044 4.01894 50.1809 4.32386 50.3892 4.71023C50.6013 5.09659 50.7074 5.57955 50.7074 6.15909V12H48.7301V10.8011H48.6619C48.5369 11.0436 48.3608 11.2708 48.1335 11.483C47.91 11.6913 47.6278 11.8598 47.2869 11.9886C46.9498 12.1136 46.554 12.1761 46.0994 12.1761ZM46.6335 10.6648C47.0464 10.6648 47.4044 10.5833 47.7074 10.4205C48.0104 10.2538 48.2434 10.0341 48.4062 9.76136C48.5729 9.48864 48.6562 9.19129 48.6562 8.86932V7.84091C48.5919 7.89394 48.482 7.94318 48.3267 7.98864C48.1752 8.03409 48.0047 8.07386 47.8153 8.10795C47.6259 8.14205 47.4384 8.17235 47.2528 8.19886C47.0672 8.22538 46.9063 8.24811 46.7699 8.26705C46.4631 8.30871 46.1884 8.37689 45.946 8.47159C45.7036 8.56629 45.5123 8.69886 45.3722 8.86932C45.232 9.03598 45.1619 9.25189 45.1619 9.51705C45.1619 9.89583 45.3002 10.1818 45.5767 10.375C45.8532 10.5682 46.2055 10.6648 46.6335 10.6648ZM54.8324 6.88636V12H52.7756V3.27273H54.7415V4.75568H54.8438C55.0445 4.26705 55.3646 3.87879 55.804 3.59091C56.2472 3.30303 56.7945 3.15909 57.446 3.15909C58.0483 3.15909 58.5729 3.28788 59.0199 3.54545C59.4706 3.80303 59.8191 4.17614 60.0653 4.66477C60.3153 5.15341 60.4384 5.74621 60.4347 6.44318V12H58.3778V6.76136C58.3778 6.17803 58.2263 5.72159 57.9233 5.39205C57.6241 5.0625 57.2093 4.89773 56.679 4.89773C56.3191 4.89773 55.9991 4.97727 55.7188 5.13636C55.4422 5.29167 55.2244 5.51705 55.0653 5.8125C54.91 6.10795 54.8324 6.46591 54.8324 6.88636ZM69.4233 5.57955L67.5483 5.78409C67.4953 5.5947 67.4025 5.41667 67.2699 5.25C67.1411 5.08333 66.9669 4.94886 66.7472 4.84659C66.5275 4.74432 66.2585 4.69318 65.9403 4.69318C65.5123 4.69318 65.1525 4.78598 64.8608 4.97159C64.5729 5.1572 64.4309 5.39773 64.4347 5.69318C64.4309 5.94697 64.5237 6.15341 64.7131 6.3125C64.9063 6.47159 65.2244 6.60227 65.6676 6.70455L67.1562 7.02273C67.982 7.20076 68.5956 7.48295 68.9972 7.86932C69.4025 8.25568 69.607 8.76136 69.6108 9.38636C69.607 9.93561 69.446 10.4205 69.1278 10.8409C68.8134 11.2576 68.3759 11.5833 67.8153 11.8182C67.2547 12.053 66.6108 12.1705 65.8835 12.1705C64.8153 12.1705 63.9555 11.947 63.304 11.5C62.6525 11.0492 62.2642 10.4223 62.1392 9.61932L64.1449 9.42614C64.2358 9.82008 64.429 10.1174 64.7244 10.3182C65.0199 10.5189 65.4044 10.6193 65.8778 10.6193C66.3665 10.6193 66.7585 10.5189 67.054 10.3182C67.3532 10.1174 67.5028 9.86932 67.5028 9.57386C67.5028 9.32386 67.4063 9.11742 67.2131 8.95455C67.0237 8.79167 66.7282 8.66667 66.3267 8.57955L64.8381 8.26705C64.0009 8.0928 63.3816 7.79924 62.9801 7.38636C62.5786 6.9697 62.3797 6.44318 62.3835 5.80682C62.3797 5.26894 62.5256 4.80303 62.821 4.40909C63.1203 4.01136 63.535 3.70455 64.0653 3.48864C64.5994 3.26894 65.215 3.15909 65.9119 3.15909C66.9347 3.15909 67.7396 3.37689 68.3267 3.8125C68.9176 4.24811 69.2831 4.83712 69.4233 5.57955ZM71.3068 15.2727V3.27273H73.3295V4.71591H73.4489C73.5549 4.50379 73.7045 4.27841 73.8977 4.03977C74.0909 3.79735 74.3523 3.59091 74.6818 3.42045C75.0114 3.24621 75.4318 3.15909 75.9432 3.15909C76.6174 3.15909 77.2254 3.33144 77.767 3.67614C78.3125 4.01705 78.7443 4.52273 79.0625 5.19318C79.3845 5.85985 79.5455 6.67803 79.5455 7.64773C79.5455 8.60606 79.3883 9.42045 79.0739 10.0909C78.7595 10.7614 78.3314 11.2727 77.7898 11.625C77.2481 11.9773 76.6345 12.1534 75.9489 12.1534C75.4489 12.1534 75.0341 12.0701 74.7045 11.9034C74.375 11.7367 74.1098 11.536 73.9091 11.3011C73.7121 11.0625 73.5587 10.8371 73.4489 10.625H73.3636V15.2727H71.3068ZM73.3239 7.63636C73.3239 8.20076 73.4034 8.69508 73.5625 9.11932C73.7254 9.54356 73.9583 9.875 74.2614 10.1136C74.5682 10.3485 74.9394 10.4659 75.375 10.4659C75.8295 10.4659 76.2102 10.3447 76.517 10.1023C76.8239 9.85606 77.0549 9.52083 77.2102 9.09659C77.3693 8.66856 77.4489 8.18182 77.4489 7.63636C77.4489 7.0947 77.3712 6.61364 77.2159 6.19318C77.0606 5.77273 76.8295 5.44318 76.5227 5.20455C76.2159 4.96591 75.8333 4.84659 75.375 4.84659C74.9356 4.84659 74.5625 4.96212 74.2557 5.19318C73.9489 5.42424 73.7159 5.74811 73.5568 6.16477C73.4015 6.58144 73.3239 7.07197 73.3239 7.63636ZM85.1136 12.1705C84.2614 12.1705 83.5227 11.983 82.8977 11.608C82.2727 11.233 81.7879 10.7083 81.4432 10.0341C81.1023 9.35985 80.9318 8.57197 80.9318 7.67045C80.9318 6.76894 81.1023 5.97917 81.4432 5.30114C81.7879 4.62311 82.2727 4.09659 82.8977 3.72159C83.5227 3.34659 84.2614 3.15909 85.1136 3.15909C85.9659 3.15909 86.7045 3.34659 87.3295 3.72159C87.9545 4.09659 88.4375 4.62311 88.7784 5.30114C89.1231 5.97917 89.2955 6.76894 89.2955 7.67045C89.2955 8.57197 89.1231 9.35985 88.7784 10.0341C88.4375 10.7083 87.9545 11.233 87.3295 11.608C86.7045 11.983 85.9659 12.1705 85.1136 12.1705ZM85.125 10.5227C85.5871 10.5227 85.9735 10.3958 86.2841 10.142C86.5947 9.88447 86.8258 9.53977 86.9773 9.10795C87.1326 8.67614 87.2102 8.19508 87.2102 7.66477C87.2102 7.13068 87.1326 6.64773 86.9773 6.21591C86.8258 5.7803 86.5947 5.43371 86.2841 5.17614C85.9735 4.91856 85.5871 4.78977 85.125 4.78977C84.6515 4.78977 84.2576 4.91856 83.9432 5.17614C83.6326 5.43371 83.3996 5.7803 83.2443 6.21591C83.0928 6.64773 83.017 7.13068 83.017 7.66477C83.017 8.19508 83.0928 8.67614 83.2443 9.10795C83.3996 9.53977 83.6326 9.88447 83.9432 10.142C84.2576 10.3958 84.6515 10.5227 85.125 10.5227ZM91.0412 12V3.27273H93.0355V4.72727H93.1264C93.2855 4.22348 93.5582 3.83523 93.9446 3.5625C94.3348 3.28598 94.7798 3.14773 95.2798 3.14773C95.3935 3.14773 95.5204 3.15341 95.6605 3.16477C95.8045 3.17235 95.9238 3.18561 96.0185 3.20455V5.09659C95.9313 5.06629 95.7931 5.03977 95.6037 5.01705C95.4181 4.99053 95.2382 4.97727 95.0639 4.97727C94.6889 4.97727 94.3518 5.05871 94.0526 5.22159C93.7571 5.38068 93.5241 5.60227 93.3537 5.88636C93.1832 6.17045 93.098 6.49811 93.098 6.86932V12H91.0412ZM102.212 3.27273V4.86364H97.1946V3.27273H102.212ZM98.4332 1.18182H100.49V9.375C100.49 9.65152 100.532 9.86364 100.615 10.0114C100.702 10.1553 100.816 10.2538 100.956 10.3068C101.096 10.3598 101.251 10.3864 101.422 10.3864C101.551 10.3864 101.668 10.3769 101.774 10.358C101.884 10.339 101.967 10.322 102.024 10.3068L102.371 11.9148C102.261 11.9527 102.104 11.9943 101.899 12.0398C101.698 12.0852 101.452 12.1117 101.161 12.1193C100.645 12.1345 100.181 12.0568 99.7685 11.8864C99.3556 11.7121 99.0279 11.4432 98.7855 11.0795C98.5469 10.7159 98.4295 10.2614 98.4332 9.71591V1.18182Z" fill="#2D2D3A"/>
</svg>
